<svg width="120" height="108" viewBox="0 0 120 108" fill="none" xmlns="http://www.w3.org/2000/svg">
<path d="M60.2761 51.4328C63.5674 51.4328 66.5875 51.8444 69.3364 52.6676C71.7121 53.379 72.5057 56.4346 72.2452 58.9008C71.8092 63.0268 72.8384 68.2676 74.3179 71C76.4402 74.9195 85.823 72.0099 85.823 77.5713V104C85.823 106.209 84.0321 108 81.823 108H76.9302C74.721 108 72.9302 106.209 72.9302 104V98.6527C72.9302 96.4435 71.1393 94.6527 68.9302 94.6527H51.4628C49.2537 94.6527 47.4628 96.4435 47.4628 98.6527V104C47.4628 106.209 45.6719 108 43.4628 108H38.7291C36.52 108 34.7291 106.209 34.7291 104V77.5713C34.7291 72.0099 44.8777 67.9195 47 64C48.5548 61.1286 47.7382 58.9758 47.1903 56.8314C46.8228 55.3931 47.6387 53.9931 49.0153 53.4378C52.3285 52.1011 56.0821 51.4328 60.2761 51.4328ZM68.9302 84.3244C71.1393 84.3244 72.9302 82.5335 72.9302 80.3244V76.3796C72.9302 71.7716 71.7894 68.3023 69.508 65.9719C67.2265 63.5884 64.1227 62.3967 60.1965 62.3967C56.2172 62.3967 53.0868 63.5884 50.8054 65.9719C48.577 68.3023 47.4628 71.7716 47.4628 76.3796V80.3244C47.4628 82.5335 49.2537 84.3244 51.4628 84.3244H68.9302Z" fill="#2470D4"/>
<path d="M60.3457 56.5672C55.1992 56.5672 50.7159 55.5608 46.8958 53.5481C43.0756 51.5354 49.5851 50.9194 47.4628 47C45.3405 43.0806 34.7988 35.9901 34.7988 30.4287V4C34.7988 1.79086 36.5896 1.56292e-07 38.7988 3.49088e-07L43.6916 7.76097e-07C45.9008 9.68893e-07 47.6916 1.79086 47.6916 4V9.34731C47.6916 11.5565 49.4825 13.3473 51.6916 13.3473L69.159 13.3473C71.3681 13.3473 73.159 11.5565 73.159 9.34731V4C73.159 1.79086 74.9498 3.50407e-06 77.159 3.69686e-06L81.8926 4.10998e-06C84.1018 4.30278e-06 85.8926 1.79087 85.8926 4V30.4287C85.8926 35.9901 77.3952 40.8993 75.273 44.8188C74.2111 46.7798 73.6031 48.4343 73.3802 49.8629C73.0542 51.9519 72.3431 54.349 70.3424 55.0325C67.3473 56.0556 64.0151 56.5672 60.3457 56.5672ZM51.6916 23.6756C49.4825 23.6756 47.6916 25.4664 47.6916 27.6756V31.6204C47.6916 36.2284 48.8323 39.6977 51.1138 42.0281C53.3952 44.4116 56.4991 45.6033 60.4253 45.6033C64.4046 45.6033 67.5349 44.4116 69.8164 42.0281C72.0448 39.6977 73.159 36.2284 73.159 31.6204V27.6756C73.159 25.4664 71.3681 23.6756 69.159 23.6756L51.6916 23.6756Z" fill="#2470D4"/>
<path d="M56.6649 53.9652C56.6649 59.1029 49.0162 60.1865 47 64C44.9838 67.8135 48.6533 74.1716 44.727 76.2902C40.8008 78.4088 36.0522 79.4681 30.4812 79.4681H4C1.79086 79.4681 7.84162e-08 77.6773 1.75148e-07 75.4681L3.88417e-07 70.5975C4.85148e-07 68.3884 1.79086 66.5975 4 66.5975H9.37036C11.5795 66.5975 13.3704 64.8067 13.3704 62.5975L13.3704 45.1741C13.3704 42.9649 11.5795 41.1741 9.37036 41.1741H4C1.79086 41.1741 1.75519e-06 39.3832 1.85193e-06 37.1741L2.05824e-06 32.4623C2.15497e-06 30.2532 1.79086 28.4623 4 28.4623L30.4812 28.4623C36.0522 28.4623 40.8008 29.5217 44.727 31.6403C48.6533 33.7589 45.6754 38.2146 47.6916 42.0281C49.7078 45.8417 56.6649 48.8276 56.6649 53.9652ZM23.7165 62.5975C23.7165 64.8067 25.5073 66.5975 27.7165 66.5975H31.675C36.291 66.5975 39.7662 65.4588 42.1007 63.1812C44.4883 60.9037 45.6821 57.8052 45.6821 53.8858C45.6821 49.9134 44.4883 46.7884 42.1007 44.5109C39.7662 42.2863 36.291 41.1741 31.675 41.1741H27.7165C25.5073 41.1741 23.7165 42.9649 23.7165 45.1741L23.7165 62.5975Z" fill="#2470D4"/>
<path d="M63.3351 54.0348C63.3351 48.8971 72.4838 46.3135 74.5 42.5C76.5162 38.6865 71.3467 33.8284 75.273 31.7098C79.1992 29.5912 83.9478 28.5319 89.5188 28.5319H116C118.209 28.5319 120 30.3227 120 32.5319V37.4025C120 39.6116 118.209 41.4025 116 41.4025H110.63C108.42 41.4025 106.63 43.1933 106.63 45.4025V62.8259C106.63 65.0351 108.42 66.8259 110.63 66.8259H116C118.209 66.8259 120 68.6168 120 70.8259V75.5376C120 77.7468 118.209 79.5376 116 79.5376H89.5188C83.9478 79.5376 79.1992 78.4783 75.273 76.3597C71.3467 74.2411 74.0162 70.6394 72 66.8259C69.9838 63.0124 63.3351 59.1724 63.3351 54.0348ZM96.2835 45.4025C96.2835 43.1933 94.4927 41.4025 92.2835 41.4025L88.325 41.4025C83.709 41.4025 80.2338 42.5412 77.8993 44.8188C75.5117 47.0963 74.3179 50.1948 74.3179 54.1142C74.3179 58.0866 75.5117 61.2116 77.8993 63.4891C80.2338 65.7136 83.709 66.8259 88.325 66.8259H92.2835C94.4927 66.8259 96.2835 65.0351 96.2835 62.8259V45.4025Z" fill="#2470D4"/>
</svg>
